{"title":"Water For Elephants 2011 CAM XVID DTRG - SAFCuk009","uid":6351670,"size":874336066,"categoryP":"video","categoryS":"movies","magnet":"?xt=urn:btih:c4511b006d0dc683f72fef04dfa16af50559b1de&amp;dn=Water+For+Elephants+2011+CAM+XVID+DTRG+-+SAFCuk009&amp;tr=udp%3A%2F%2Ftracker.openbittorrent.com%3A80&amp;tr=udp%3A%2F%2Fopen.demonii.com%3A1337&amp;tr=udp%3A%2F%2Ftracker.coppersurfer.tk%3A6969&amp;tr=udp%3A%2F%2Fexodus.desync.com%3A6969","seeders":1,"leechers":0,"uploader":"SAFCukO09","files":4,"time":1304019536,"description":"\n\n\nFormat                           : AVI\nFormat/Info                      : Audio Video Interleave\nFile size                        : 831 MiB\nDuration                         : 1h 53mn\nOverall bit rate                 : 1 028 Kbps\nWriting library                  : VirtualDub build 32839/release\n\nVideo\nID                               : 0\nFormat                           : MPEG-4 Visual\nFormat profile                   : Advanced Simple@L5\nFormat settings, BVOP            : Yes\nFormat settings, QPel            : No\nFormat settings, GMC             : No warppoints\nFormat settings, Matrix          : Custom\nCodec ID                         : XVID\nCodec ID/Hint                    : XviD\nDuration                         : 1h 53mn\nBit rate                         : 890 Kbps\nWidth                            : 578 pixels\nHeight                           : 314 pixels\nDisplay aspect ratio             : 16:9\nFrame rate                       : 25.000 fps\nColor space                      : YUV\nChroma subsampling               : 4:2:0\nBit depth                        : 8 bits\nScan type                        : Progressive\nBits/(Pixel*Frame)               : 0.196\nStream size                      : 720 MiB (87%)\nWriting library                  : XviD 1.2.1 (UTC 2008-12-04)\n\nAudio\nID                               : 1\nFormat                           : MPEG Audio\nCodec ID                         : 55\nCodec ID/Hint                    : MP3\nDuration                         : 1h 53mn\nBit rate                         : 128 Kbps\nChannel(s)                       : 2 channels\nSampling rate                    : 44.1 KHz\nStream size                      : 103 MiB (12%)\nAlignment                        : Split accross interleaves\nInterleave, duration             : 40 ms (1.00 video frame)\nInterleave, preload duration     : 500 ms\n\n\n\n &lt;a href=&quot;\nhttp://www.imdb.com/title/tt1067583/&quot; rel=&quot;nofollow&quot; target=&quot;_NEW&quot;&gt;\nhttp://www.imdb.com/title/tt1067583/&lt;/a&gt;\n\n\n\n\n\n\n\nUsers: 6.9/10 (2,811 votes) 65 reviews | Critics: 18 reviews Metascore: 54/100 (based on 31 reviews from Metacritic.com)\n\nA veterinary student abandons his studies after his parents are killed and joins a traveling circus as their vet.\nDirector:\nFrancis Lawrence\nWriters:\nRichard LaGravenese (screenplay), Sara Gruen (novel)\nStars:\nRobert Pattinson, Reese Witherspoon and Christoph Waltz\n\n\n\n\n\n\n\n &lt;a href=&quot;\nhttp://img580.imageshack.us/img580/1023/vlcsnap2011042815h55m55.png&quot; rel=&quot;nofollow&quot; target=&quot;_NEW&quot;&gt;\nhttp://img580.imageshack.us/img580/1023/vlcsnap2011042815h55m55.png&lt;/a&gt; &lt;a href=&quot;\nhttp://img846.imageshack.us/img846/5522/vlcsnap2011042815h53m06.png&quot; rel=&quot;nofollow&quot; target=&quot;_NEW&quot;&gt;\nhttp://img846.imageshack.us/img846/5522/vlcsnap2011042815h53m06.png&lt;/a&gt; &lt;a href=&quot;\nhttp://img543.imageshack.us/img543/9995/vlcsnap2011042815h51m28.png&quot; rel=&quot;nofollow&quot; target=&quot;_NEW&quot;&gt;\nhttp://img543.imageshack.us/img543/9995/vlcsnap2011042815h51m28.png&lt;/a&gt;\n\n\n\nSource LKRG and mustangman ...............Thanks \n\n+Quote from LKRG nfo  +\n\nOkay reason for READ NFO the russian cam is missing about 3 minutes odd spots for about 2 seconds here and there so occasionally for about 10 15 seconds audio might be oos\nbecause its catching up,and the russian cam is missing a minute and a half from the ending but our audio had it so i left the audio intact and just had a scene repeat it's self\nbecause listening to the audio you will very well understand how the movie ends i really doubt that 1 last minute had any crucial image that would ruin the movie for you.\n\n\n\n\n\nWhat ive done is change the rgb colours again colours still dont seem right to me but better imo slightest smoother and slight denoise ..Check out the sample 1st as imo its not greatest cam but did what i could with it and kept the file size down to a minimum\n\n\n\n\nGreetz to Imagine ,Flawl3ss,DiLLoN,BDK,NOiR,TOXiCiNK,THC,Ez,Rx,Boobyblue,TaRiQ786,LKRG\n\n\n\n\n\n","torrent":{"xt":"urn:btih:c4511b006d0dc683f72fef04dfa16af50559b1de","amp;dn":"Water+For+Elephants+2011+CAM+XVID+DTRG+-+SAFCuk009","amp;tr":["udp%3A%2F%2Ftracker.openbittorrent.com%3A80","udp%3A%2F%2Fopen.demonii.com%3A1337","udp%3A%2F%2Ftracker.coppersurfer.tk%3A6969","udp%3A%2F%2Fexodus.desync.com%3A6969"],"infoHash":"c4511b006d0dc683f72fef04dfa16af50559b1de","infoHashBuffer":{"type":"Buffer","data":[196,81,27,0,109,13,198,131,247,47,239,4,223,161,106,245,5,89,177,222]},"announce":[],"urlList":[]}}